<svg xmlns="http://www.w3.org/2000/svg" fill="none" viewBox="62.98 31.74 84.1 100.86">
<path d="M65.7859 33.3379C65.7859 33.3379 53.6606 121.184 104.011 131.262C104.011 131.262 156.64 128.569 143.396 33.3379H65.7859Z" fill="white"/>
<path d="M119.275 73.8115L121.167 74.3827L121.554 74.9132L119.232 74.5051L119.275 73.8115Z" fill="black"/>
<path d="M131.229 114.327L103.71 99.7607L124.779 121.712" fill="#990A2C"/>
<path d="M76.4929 33.2946L103.968 100.332L90.7681 33.0498" fill="#990A2C"/>
<path d="M140.903 94.1689L103.538 99.922L137.85 102.982" fill="#990A2C"/>
<path d="M64.8407 74.1774L104.14 100.168L64.6257 60.5088" fill="#990A2C"/>
<path d="M145.289 58.4707L103.538 100.17L145.762 72.1801" fill="#990A2C"/>
<path d="M72.1502 103.066L104.14 99.9248L69.4844 94.7021" fill="#990A2C"/>
<path d="M117.082 33.4175L103.71 100.332L131.358 33.3359" fill="#990A2C"/>
<path d="M84.1462 121.63L103.968 99.7607L77.6965 114.041" fill="#990A2C"/>
<path d="M94.2939 56.2272C96.1858 54.5544 101.56 51.6982 101.56 51.6982V44.9659L103.882 41.8242C103.882 41.8242 105.387 41.9058 105.989 42.7219C106.806 43.7419 106.978 44.9251 106.978 44.9251L107.021 51.7798C107.021 51.7798 109.988 51.5758 114.632 55.5744C115.32 56.1864 116.954 60.9194 117.255 61.8987C117.513 62.9187 117.384 66.5093 117.384 66.5093L119.232 67.3253L119.318 74.0168L121.64 74.7512V81.8507L121.769 82.0139V87.5629L122.5 87.7261V92.7448L123.79 93.0304L124.005 93.2752L124.048 122.775C124.048 122.775 114.245 131.955 104.226 131.547C96.2288 131.221 85.3934 122.856 85.3934 122.856L85.2644 93.5608L86.7693 93.2344L86.8123 88.3382L87.2853 87.8894V82.3811L87.7153 82.2179V75.3632L89.3062 74.7512L89.3492 68.4269L90.8541 67.6925V63.6123L92.23 63.0411C92.23 58.7977 94.2939 56.268 94.2939 56.2272Z" fill="white"/>
<path d="M104.097 131.792C104.097 131.792 97.7766 130.119 95.1968 128.936C92.6169 127.753 85.3504 123.224 85.3504 123.224L85.3074 93.4383L104.183 89.1133L104.097 131.792Z" fill="black"/>
<path d="M90.2086 92.0492L86.8118 92.8652V88.173L90.2086 87.2754V92.0492Z" fill="black"/>
<path d="M90.4235 86.9897L87.2847 87.8057V82.2975L90.4235 81.1143V86.9897Z" fill="black"/>
<path d="M90.8967 67.6108V63.4898L99.0663 60.0625V64.5099L90.8967 67.6108Z" fill="black"/>
<path d="M99.324 60.1016V64.3857L100.7 63.8961V60.5912L99.324 60.1016Z" fill="black"/>
<path d="M100.915 60.5918H106.505V63.5295L104.097 64.3456L102.119 63.4071L100.915 63.8151V60.5918Z" fill="black"/>
<path d="M106.677 60.5933L107.58 59.9404V63.8166L106.677 63.531V60.5933Z" fill="black"/>
<path d="M90.5959 80.8709L87.7151 81.9318V75.1995L90.5959 74.1387V80.8709Z" fill="black"/>
<path d="M101.388 50.3103V45.5365C102.377 44.7205 104.957 43.986 107.021 45.6181V50.1471L101.388 50.3103Z" fill="white"/>
<path d="M92.2722 62.4279C92.2722 48.6369 116.05 46.7193 117.297 62.1015C108.396 57.7357 98.8078 58.4293 92.7452 62.1423L92.2722 62.4279Z" fill="black"/>
<path d="M106.29 70.589V63.8976L104.097 64.5912L102.205 63.7344L102.248 70.793L104.183 70.3034V69.977L106.29 70.589Z" fill="black"/>
<path d="M117.254 80.3819L117.168 72.3032C116.007 65.3261 109.6 65.6525 108.224 71.1607L108.697 71.2831V73.568C109.428 73.364 110.331 74.2616 110.331 75.3633L110.976 75.6081L111.019 79.0762L111.793 79.2802V73.4048C111.535 70.2223 109.729 69.7734 108.826 70.9567C109.858 69.0798 112.18 70.8343 112.352 73.4456V80.2187L113.384 80.5451V73.568C113.556 71.2423 114.631 70.9567 115.319 71.7727C114.717 71.2831 113.943 72.0583 113.857 73.6904V79.8923L115.878 80.3819V80.5451L117.254 80.3819Z" fill="black"/>
<path d="M115.878 75.5252C115.878 75.5252 114.889 75.362 114.803 76.5453C114.717 77.7285 114.717 80.299 114.717 80.299L115.878 80.5846V75.5252Z" fill="white"/>
<path d="M96.7007 79.9311V79.6455V74.7901C96.7007 74.7901 97.7756 74.6269 97.8616 75.7694C97.9476 76.7894 97.9906 78.7887 97.9906 79.2375L99.6245 78.7479C99.6245 78.7479 99.6675 74.0557 99.5815 71.8932C99.5385 70.8732 98.9796 70.0571 98.3346 69.8531C99.0226 69.8123 99.7105 70.4243 99.9255 71.7708V78.6663L104.182 77.279V69.8939L101.301 70.9956L101.344 70.7915L102.032 70.5059L101.989 63.8145L89.3911 68.3842V74.6269L90.767 74.1373V80.9104L91.971 81.4816L91.67 81.604L90.595 81.1144V86.9898L91.455 87.3162V87.6427L90.4661 87.2755V91.9677L91.498 91.7228L104.225 88.7851V77.4422L96.7007 79.9311ZM95.2388 80.4208L92.014 81.4816L92.186 73.6477C92.186 70.2611 94.2928 70.5467 94.9808 71.8524C94.2068 70.8324 92.6589 70.7916 92.3579 73.4029V80.7472L92.8739 80.6248C92.8739 80.0535 92.7879 77.3606 92.8739 76.0142C92.9599 74.5045 94.4648 74.5861 94.4648 75.9326L95.2388 75.851V80.0943V80.4208Z" fill="black"/>
<path d="M92.8313 85.8078C92.8313 84.8693 93.0033 84.3389 93.3043 83.9717C93.1323 84.3797 92.9603 84.8285 92.9603 85.4405C92.9603 85.5221 92.9603 85.6446 92.9603 85.767C93.0893 87.7254 94.5082 88.6639 95.3682 88.8271C95.5402 88.8679 95.7551 88.8679 95.9271 88.8679C95.8411 88.8679 95.7551 88.9087 95.6692 88.9087C94.1212 88.9087 92.8313 87.5214 92.8313 85.8078Z" fill="white"/>
<path d="M104.183 77.1982L108.698 78.5447L108.87 78.9119L104.183 77.5247V77.1982Z" fill="black"/>
<path d="M117.684 86.3789L122.37 87.4805L122.542 87.6845L117.899 86.5829L117.684 86.3789Z" fill="black"/>
<path d="M107.451 63.4062L118.071 66.6296V66.9152L107.451 63.7735V63.4062Z" fill="black"/>
<path d="M123.833 92.9479L117.899 91.7238V86.542L116.695 86.9908V90.9078L116.566 90.867L116.48 81.0338L116.05 80.9114L116.738 80.789L116.695 86.4604L117.555 86.134V80.789L121.769 81.9722L121.597 81.7682L117.254 80.5034L117.211 74.6279L115.792 74.9135L115.878 80.8706L108.913 78.8713V84.6243L104.183 83.5227V83.8899L108.913 84.9507L108.956 89.7245L104.183 88.7861V89.1533L124.091 93.1927L123.833 92.9479Z" fill="black"/>
<path d="M106.247 52.1865C106.247 52.1865 117.469 55.7771 117.383 63.4478L107.752 59.6532C88.2308 53.4922 113.513 55.8179 106.247 52.1865Z" fill="white"/>
<path d="M104.183 83.8481V83.5625L98.8946 84.9498L98.8516 85.1946L104.183 83.8481Z" fill="white"/>
<path d="M103.581 41.7013V41.2521C103.925 41.1295 104.699 41.1295 104.828 41.2521V41.6605L103.581 41.7013Z" fill="black"/>
<path d="M103.323 42.2723V41.6596C103.796 41.4963 104.828 41.4963 105.043 41.6596V42.1907L103.323 42.2723Z" fill="black"/>
<path d="M107.321 50.9218V50.1465C107.235 50.1057 107.192 50.0649 107.106 50.0649V45.6583C107.407 45.6583 107.536 45.2503 107.192 44.9647C107.106 44.8831 107.02 44.8423 106.934 44.8015L105.773 44.3527C105.988 43.8631 106.074 43.0878 104.441 42.2718C104.441 42.2718 106.031 42.639 106.848 44.2303C106.59 43.2918 106.074 42.639 105.429 42.3126V41.4558L105.301 41.3742C105.301 41.3742 105.258 41.3742 105.215 41.3334V41.0477L105.086 40.9661C104.957 40.8845 104.785 40.8437 104.527 40.8437V39.6605H105.387V39.0077H104.527V38.2324H103.839V39.0077H103.022V39.6605H103.839V40.8437C103.71 40.8437 103.581 40.8845 103.495 40.9253L103.28 41.0069V41.3334H103.237L103.022 41.415V42.2718C102.162 42.6798 101.474 43.4958 101.345 44.7199C101.259 44.7607 101.173 44.8423 101.087 44.8831C100.442 45.4543 100.958 45.6583 101.345 45.5767V50.1465C101.302 50.1465 101.216 50.1873 101.173 50.2281V50.9626C100.958 51.0034 100.743 51.085 100.614 51.1258V51.9826C102.721 51.697 108.009 51.7378 108.009 51.7378V51.0442C107.751 51.0442 107.536 51.0034 107.321 50.9218ZM101.99 50.0241V45.3727C102.291 45.2911 102.549 45.2095 102.807 45.1687L102.85 49.9017C102.549 49.9017 102.248 49.9425 101.99 50.0241ZM104.613 49.7385C104.355 49.7385 104.097 49.7385 103.839 49.7793L103.796 45.0055C104.054 45.0055 104.355 45.0055 104.57 45.0055V49.7385H104.613ZM106.375 49.8609C106.117 49.8201 105.859 49.7793 105.601 49.7793V45.1687C105.902 45.2503 106.16 45.3319 106.375 45.4135V49.8609Z" fill="black"/>
<path d="M103.882 132.606L103.667 132.565C91.7568 130.158 82.2543 123.344 75.4607 112.328C70.086 103.637 66.3883 92.2531 64.4964 78.5845C61.2286 55.4499 64.2384 33.2538 64.2814 33.009L64.4534 31.7441H144.773L144.945 33.009C147.911 54.5115 147.783 73.0355 144.515 88.1321C141.849 100.373 137.162 110.451 130.541 118.04C118.587 131.708 104.699 132.565 104.097 132.606H103.882ZM67.1192 34.6411C66.5602 39.6189 64.7543 58.5917 67.5062 78.2173C69.3551 91.4778 72.9239 102.453 78.0836 110.859C84.4042 121.1 93.1327 127.424 104.054 129.668C104.828 129.587 107.838 129.26 111.837 127.71C116.093 126.078 122.414 122.732 128.176 116.081C134.453 108.859 138.925 99.2302 141.462 87.4385C144.558 72.9539 144.73 55.2051 141.978 34.6003H67.1192V34.6411Z" fill="black"/>
<path d="M111.836 82.4201C112.481 82.3793 113.126 82.5833 113.685 83.0322C114.33 83.5626 114.76 84.3786 114.803 85.2763C114.803 85.4803 114.803 85.6435 114.803 85.8067C114.803 86.3371 114.717 86.6635 114.545 86.9491C114.631 86.6635 114.674 86.3371 114.674 85.9699C114.674 85.7659 114.674 85.5619 114.631 85.3579C114.373 83.4402 112.911 82.5834 112.094 82.5017C111.922 82.5017 111.75 82.5017 111.578 82.5017C111.707 82.4609 111.75 82.4201 111.836 82.4201Z" fill="white"/>
<path d="M112.997 80.624L115.878 81.3585V84.3778C115.018 82.2969 114.975 81.9297 112.997 80.624Z" fill="white"/>
<path d="M119.361 74.055L119.189 72.0557V73.9734L119.361 74.055Z" fill="black"/>
</svg>